<mxfile host="app.diagrams.net" modified="2023-11-14T17:00:22.531Z" agent="Mozilla/5.0 (Windows NT 10.0; Win64; x64) AppleWebKit/537.36 (KHTML, like Gecko) Chrome/119.0.0.0 Safari/537.36" etag="fg9AL9Z5gxhxKiU9Fr6S" version="22.1.1" type="github">
  <diagram name="Página-1" id="w0e9lN6FAm0nyW3ddYeq">
    <mxGraphModel dx="880" dy="478" grid="1" gridSize="10" guides="1" tooltips="1" connect="1" arrows="1" fold="1" page="1" pageScale="1" pageWidth="827" pageHeight="1169" math="0" shadow="0">
      <root>
        <mxCell id="0" />
        <mxCell id="1" parent="0" />
        <mxCell id="33LNgJjM1-mqK_U-j7uh-1" value="&lt;b style=&quot;font-size: 14px;&quot;&gt;La&amp;nbsp;diversidad de géneros musicales autóctonos a menudo carece de un sistema&amp;nbsp;efectivo de clasificación y reconocimiento automático&lt;/b&gt;" style="rounded=0;whiteSpace=wrap;html=1;align=center;" vertex="1" parent="1">
          <mxGeometry x="240" y="217" width="440" height="60" as="geometry" />
        </mxCell>
        <mxCell id="33LNgJjM1-mqK_U-j7uh-2" value="La&amp;nbsp;información que se encuentra tanto en Internet como en sitios no oficiales&amp;nbsp;sobre un género musical autóctono a partir de un fragmento de audio muchas&amp;nbsp;veces esta dispersa y en ocasiones puede ser errónea" style="rounded=0;whiteSpace=wrap;html=1;" vertex="1" parent="1">
          <mxGeometry x="30" y="350" width="180" height="120" as="geometry" />
        </mxCell>
        <mxCell id="33LNgJjM1-mqK_U-j7uh-3" value="Se&lt;br&gt;desvirtúan las manifestaciones culturales autóctonas de un pueblo dificultando&lt;br&gt;su preservación y difusión" style="rounded=0;whiteSpace=wrap;html=1;" vertex="1" parent="1">
          <mxGeometry x="50" y="40" width="180" height="120" as="geometry" />
        </mxCell>
        <mxCell id="33LNgJjM1-mqK_U-j7uh-4" value="La&lt;br/&gt;dificultad en la obtención de información a partir de un fragmento de audio" style="rounded=0;whiteSpace=wrap;html=1;" vertex="1" parent="1">
          <mxGeometry x="230" y="350" width="150" height="90" as="geometry" />
        </mxCell>
        <mxCell id="33LNgJjM1-mqK_U-j7uh-5" value="Pérdida&lt;br&gt;de interés por parte del espectador" style="rounded=0;whiteSpace=wrap;html=1;" vertex="1" parent="1">
          <mxGeometry x="270" y="100" width="130" height="60" as="geometry" />
        </mxCell>
        <mxCell id="33LNgJjM1-mqK_U-j7uh-6" value="Escaza&lt;br&gt;o inexistente información obtenida a partir del audio de un fragmento musical&lt;br&gt;autóctono&amp;nbsp;" style="rounded=0;whiteSpace=wrap;html=1;" vertex="1" parent="1">
          <mxGeometry x="400" y="350" width="150" height="90" as="geometry" />
        </mxCell>
        <mxCell id="33LNgJjM1-mqK_U-j7uh-7" value="Desconocimiento&lt;br&gt;del significado cultural al momento de ser interpretado por parte de artistas&lt;br&gt;de música o danza" style="rounded=0;whiteSpace=wrap;html=1;" vertex="1" parent="1">
          <mxGeometry x="430" y="50" width="150" height="110" as="geometry" />
        </mxCell>
        <mxCell id="33LNgJjM1-mqK_U-j7uh-8" value="Un&lt;br/&gt;investigador o interprete interesado en la música o danza de una comunidad debe&lt;br/&gt;dedicar un tiempo considerable para reconocer y determinar el origen de un&lt;br/&gt;determinado fragmento de audio de música autóctona" style="rounded=0;whiteSpace=wrap;html=1;" vertex="1" parent="1">
          <mxGeometry x="580" y="340" width="220" height="110" as="geometry" />
        </mxCell>
        <mxCell id="33LNgJjM1-mqK_U-j7uh-9" value="&lt;font style=&quot;font-size: 12px;&quot;&gt;&lt;br&gt;&lt;span style=&quot;font-family: Arial, sans-serif;&quot;&gt;mayor&lt;br&gt;inversión de recursos económicos en su investigación&lt;/span&gt;&lt;br&gt;&lt;br&gt;&lt;br&gt;&lt;/font&gt;" style="rounded=0;whiteSpace=wrap;html=1;" vertex="1" parent="1">
          <mxGeometry x="620" y="70" width="150" height="90" as="geometry" />
        </mxCell>
        <mxCell id="33LNgJjM1-mqK_U-j7uh-15" value="" style="endArrow=classic;html=1;rounded=0;entryX=0.523;entryY=0.933;entryDx=0;entryDy=0;entryPerimeter=0;" edge="1" parent="1" target="33LNgJjM1-mqK_U-j7uh-1">
          <mxGeometry width="50" height="50" relative="1" as="geometry">
            <mxPoint x="100" y="350" as="sourcePoint" />
            <mxPoint x="420" y="310" as="targetPoint" />
            <Array as="points">
              <mxPoint x="100" y="310" />
              <mxPoint x="470" y="310" />
            </Array>
          </mxGeometry>
        </mxCell>
        <mxCell id="33LNgJjM1-mqK_U-j7uh-16" value="" style="endArrow=none;html=1;rounded=0;" edge="1" parent="1">
          <mxGeometry width="50" height="50" relative="1" as="geometry">
            <mxPoint x="300" y="350" as="sourcePoint" />
            <mxPoint x="300" y="310" as="targetPoint" />
          </mxGeometry>
        </mxCell>
        <mxCell id="33LNgJjM1-mqK_U-j7uh-17" value="" style="endArrow=none;html=1;rounded=0;" edge="1" parent="1">
          <mxGeometry width="50" height="50" relative="1" as="geometry">
            <mxPoint x="470" y="350" as="sourcePoint" />
            <mxPoint x="470" y="310" as="targetPoint" />
            <Array as="points">
              <mxPoint x="470" y="340" />
            </Array>
          </mxGeometry>
        </mxCell>
        <mxCell id="33LNgJjM1-mqK_U-j7uh-18" value="" style="endArrow=none;html=1;rounded=0;" edge="1" parent="1">
          <mxGeometry width="50" height="50" relative="1" as="geometry">
            <mxPoint x="689.5" y="340" as="sourcePoint" />
            <mxPoint x="470" y="310" as="targetPoint" />
            <Array as="points">
              <mxPoint x="689.5" y="330" />
              <mxPoint x="690" y="310" />
            </Array>
          </mxGeometry>
        </mxCell>
        <mxCell id="33LNgJjM1-mqK_U-j7uh-19" value="" style="endArrow=classic;html=1;rounded=0;exitX=0.525;exitY=0;exitDx=0;exitDy=0;exitPerimeter=0;" edge="1" parent="1" source="33LNgJjM1-mqK_U-j7uh-1">
          <mxGeometry width="50" height="50" relative="1" as="geometry">
            <mxPoint x="350" y="217" as="sourcePoint" />
            <mxPoint x="690" y="160" as="targetPoint" />
            <Array as="points">
              <mxPoint x="470" y="180" />
              <mxPoint x="690" y="180" />
              <mxPoint x="690" y="160" />
            </Array>
          </mxGeometry>
        </mxCell>
        <mxCell id="33LNgJjM1-mqK_U-j7uh-20" value="" style="endArrow=classic;html=1;rounded=0;" edge="1" parent="1">
          <mxGeometry width="50" height="50" relative="1" as="geometry">
            <mxPoint x="520" y="180" as="sourcePoint" />
            <mxPoint x="520" y="160" as="targetPoint" />
            <Array as="points">
              <mxPoint x="520" y="180" />
              <mxPoint x="520" y="160" />
            </Array>
          </mxGeometry>
        </mxCell>
        <mxCell id="33LNgJjM1-mqK_U-j7uh-23" value="" style="endArrow=classic;html=1;rounded=0;" edge="1" parent="1">
          <mxGeometry width="50" height="50" relative="1" as="geometry">
            <mxPoint x="470" y="180" as="sourcePoint" />
            <mxPoint x="340" y="160" as="targetPoint" />
            <Array as="points">
              <mxPoint x="340" y="180" />
            </Array>
          </mxGeometry>
        </mxCell>
        <mxCell id="33LNgJjM1-mqK_U-j7uh-25" value="" style="endArrow=classic;html=1;rounded=0;" edge="1" parent="1">
          <mxGeometry width="50" height="50" relative="1" as="geometry">
            <mxPoint x="340" y="180" as="sourcePoint" />
            <mxPoint x="120" y="160" as="targetPoint" />
            <Array as="points">
              <mxPoint x="120" y="180" />
            </Array>
          </mxGeometry>
        </mxCell>
      </root>
    </mxGraphModel>
  </diagram>
</mxfile>
